<svg height="135" viewBox="0 0 911 135" width="911" xmlns="http://www.w3.org/2000/svg"><g fill-rule="evenodd"><path d="m219.488007 41.764999c-9.70102 0-18.138001 3.374009-25.308014 8.858002v-8.013992h-22.776993v89.000992h23.620987v-56.944001c3.374023-4.639999 11.389007-10.966995 21.512024-10.966995 3.79599 0 6.748993.421997 9.700989 1.265v-22.777009c-2.109009-.421997-4.640015-.421997-6.748993-.421997"/><path d="m11.539001 104.613998c5.904999 5.483002 15.184998 8.858002 24.464997 8.858002 6.327003 0 11.389-2.953003 11.389-7.591995 0-13.498001-43.023995-8.436005-43.023995-37.541 0-17.294007 16.449997-27.839005 34.166001-27.839005 11.389 0 24.042999 4.218002 29.947998 8.858002l-10.966996 17.293991c-4.640007-3.373993-10.545005-5.904999-16.872009-5.904999-6.749 0-12.231994 2.531006-12.231994 7.171005 0 11.389008 43.024002 7.171006 43.024002 37.962006 0 17.293991-16.872002 27.416992-35.432007 27.416992-12.231995 0-25.307999-4.218002-35.852997-11.811005l11.389-16.871994z"/><path d="m161.279007 86.475998c0-24.886002-17.294006-45.555008-41.759003-45.555008-26.574005 0-43.445999 21.512009-43.445999 46.39801 0 27.839005 19.824997 46.397995 46.397995 46.397995 13.919998 0 27.839005-5.904999 36.274994-16.028991l-13.498001-13.498002c-4.217987 4.64-12.231995 10.123002-22.355988 10.123002-12.654007 0-22.777008-8.436005-24.042999-21.089997h61.582993c.421997-2.109009.843994-4.218002.843994-6.749008zm-61.161011-10.544998c1.265-8.013993 9.279999-15.606995 18.981003-15.606995s16.871994 7.591995 17.716003 15.606995z"/><path d="m283.181 97.020996 24.042999-54.411987h24.885986l-40.914978 89.421997h-16.450012l-40.915008-89.421997h24.886016z"/><path d="m352.356995.850006c8.436004 0 15.606994 6.748993 15.606994 15.184998 0 8.436004-7.17099 15.184997-15.606994 15.184997-8.436005 0-15.606995-6.748993-15.606995-15.184997 0-8.436005 6.748993-15.184998 15.606995-15.184998"/></g><path d="m340.123993 42.609009h23.621002v89.000992h-23.621002z"/><path d="m462.447998 113.472c-10.544983 13.919998-23.621002 20.246994-40.493011 20.246994-27.416993 0-47.664002-20.667999-47.664002-46.397995s20.66803-46.397995 47.664002-46.397995c15.185028 0 29.105011 7.17099 37.540985 17.716004l-16.871949 14.762985c-4.640014-6.326996-11.811035-10.544998-20.668029-10.544998-13.919983 0-24.043 10.96701-24.043 24.465011 0 13.919998 10.123017 24.464997 24.464997 24.464997 9.701019 0 17.294006-5.904999 21.090027-11.811005l18.980957 13.498001z" fill-rule="evenodd"/><path d="m548.916992 117.690002c-8.435974 10.123002-22.776977 16.028992-36.274963 16.028992-26.574036 0-46.39801-18.55899-46.39801-46.397995 0-24.886001 16.872009-46.397995 43.445983-46.397995 24.465027 0 41.758973 20.667999 41.758973 45.554993 0 2.531006 0 4.639999-.421997 6.749008h-61.583008c1.265014 12.653992 11.389038 21.089996 24.04303 21.089996 10.122985 0 18.138-5.904998 22.356018-10.123001l13.075988 13.498001zm-21.932983-41.759002c-.843994-8.013993-8.014038-15.606995-17.716004-15.606995-9.702026 0-18.138 7.591995-18.981018 15.606995z" fill-rule="evenodd"/><path d="m560.728027 132.031006v-89.421997h22.776978v7.17099c6.749023-5.483002 15.184997-8.858002 25.307983-8.858002 12.231995 0 23.621033 5.483002 30.791992 14.341003 5.90503 7.171006 9.28003 16.029007 9.28003 31.214005v45.554993h-23.621033v-47.242005c0-8.857986-2.108948-13.497986-5.482971-16.871994-2.953003-2.953003-8.013977-5.061996-13.497986-5.061996-10.123047 0-18.138 6.326996-21.512024 10.966995v57.787003h-24.042969v.421997z" fill-rule="evenodd"/><path d="m710.046997 40.92099c-28.260986 0-51.882019 23.199005-52.304016 51.882004 0 15.185013 6.327026 28.682998 16.450012 38.384002 3.796021 3.374009 9.280029 3.796006 13.497986.84401 5.905029-4.64 13.498047-7.171005 22.356018-7.171005 8.858032 0 16.450012 2.953003 22.356018 7.171005 4.217957 2.952988 9.701965 2.952988 13.497986-.84401 10.122986-9.701004 16.028992-22.776992 16.028992-37.96199-.421997-29.104004-23.198975-52.304016-51.882019-52.304016m-.422974 78.034012c-15.606995 0-26.151978-11.811005-26.151978-26.152008 0-14.340988 10.544983-26.151993 26.151978-26.151993s26.151978 11.811005 26.151978 26.151993c0 14.763-10.544983 26.152008-26.151978 26.152008" fill="#63df4e" fill-rule="evenodd"/><path d="m808.749023 132.031006h-17.716003l-35.432007-89.421997h24.042969l19.403015 51.037994 18.981995-51.037994h19.824035l18.980957 51.037994 19.403016-51.037994h23.620971l-35.430969 89.421997h-17.716003l-18.981019-51.03801z" fill-rule="evenodd"/><path d="m900.280029 121.908005h-2.109008v3.79599h-1.687012v-10.544998h4.218017c1.686951 0 3.373963 1.686996 3.373963 3.374008 0 1.264999-.843994 2.53099-2.109009 2.952987l2.531006 4.218003h-1.687012zm-2.109008-1.687012h2.531005c.843995 0 1.686951-.843994 1.686951-1.686996 0-.843003-.843994-1.686997-1.686951-1.686997h-2.531005z"/><path d="m899.857971 110.940994c5.483032 0 9.702027 4.218003 9.702027 9.701004 0 5.483002-4.218018 9.701004-9.702027 9.701004-5.483948 0-9.701965-4.218002-9.701965-9.701004 0-5.483001 4.640015-9.701004 9.701965-9.701004m0-1.265991c-6.326965 0-10.96698 5.061997-10.96698 10.966995 0 6.326996 5.062012 10.966996 10.96698 10.966996 6.327027 0 10.967041-5.061997 10.967041-10.966996.421997-6.326996-4.640014-10.966995-10.967041-10.966995z"/></svg>