<?xml version="1.0" encoding="UTF-8"?>
<!-- Generated by Pixelmator Pro 3.7.1 -->
<svg width="911" height="135" viewBox="0 0 911 135" xmlns="http://www.w3.org/2000/svg">
    <g id="Group">
        <path id="Path" fill="#ffffff" fill-rule="evenodd" stroke="none" d="M 219.488007 41.764999 C 209.786987 41.764999 201.350006 45.139008 194.179993 50.623001 L 194.179993 42.609009 L 171.403 42.609009 L 171.403 131.610001 L 195.023987 131.610001 L 195.023987 74.666 C 198.39801 70.026001 206.412994 63.699005 216.536011 63.699005 C 220.332001 63.699005 223.285004 64.121002 226.237 64.964005 L 226.237 42.186996 C 224.127991 41.764999 221.596985 41.764999 219.488007 41.764999"/>
        <path id="path1" fill="#ffffff" fill-rule="evenodd" stroke="none" d="M 11.539001 104.613998 C 17.444 110.097 26.723999 113.472 36.003998 113.472 C 42.331001 113.472 47.392998 110.518997 47.392998 105.880005 C 47.392998 92.382004 4.369003 97.444 4.369003 68.339005 C 4.369003 51.044998 20.819 40.5 38.535004 40.5 C 49.924004 40.5 62.578003 44.718002 68.483002 49.358002 L 57.516006 66.651993 C 52.875999 63.278 46.971001 60.746994 40.643997 60.746994 C 33.894997 60.746994 28.412003 63.278 28.412003 67.917999 C 28.412003 79.307007 71.436005 75.089005 71.436005 105.880005 C 71.436005 123.173996 54.564003 133.296997 36.003998 133.296997 C 23.772003 133.296997 10.695999 129.078995 0.151001 121.485992 L 11.540001 104.613998 Z"/>
        <path id="path2" fill="#ffffff" fill-rule="evenodd" stroke="none" d="M 161.279007 86.475998 C 161.279007 61.589996 143.985001 40.92099 119.520004 40.92099 C 92.945999 40.92099 76.074005 62.432999 76.074005 87.319 C 76.074005 115.158005 95.899002 133.716995 122.472 133.716995 C 136.391998 133.716995 150.311005 127.811996 158.746994 117.688004 L 145.248993 104.190002 C 141.031006 108.830002 133.016998 114.313004 122.893005 114.313004 C 110.238998 114.313004 100.115997 105.876999 98.850006 93.223007 L 160.432999 93.223007 C 160.854996 91.113998 161.276993 89.005005 161.276993 86.473999 L 161.276993 86.473999 Z M 100.117996 75.931 C 101.382996 67.917007 109.397995 60.324005 119.098999 60.324005 C 128.800003 60.324005 135.970993 67.916 136.815002 75.931 L 100.117996 75.931 Z"/>
        <path id="path3" fill="#ffffff" fill-rule="evenodd" stroke="none" d="M 283.181 97.020996 L 307.223999 42.609009 L 332.109985 42.609009 L 291.195007 132.031006 L 274.744995 132.031006 L 233.829987 42.609009 L 258.716003 42.609009 L 283.181 97.020996 Z"/>
        <g id="g1">
            <path id="path4" fill="#ffffff" fill-rule="evenodd" stroke="none" d="M 352.356995 0.850006 C 360.792999 0.850006 367.963989 7.598999 367.963989 16.035004 C 367.963989 24.471008 360.792999 31.220001 352.356995 31.220001 C 343.92099 31.220001 336.75 24.471008 336.75 16.035004 C 336.75 7.598999 343.498993 0.850006 352.356995 0.850006"/>
            <path id="path5" fill="#ffffff" stroke="none" d="M 340.123993 42.609009 L 363.744995 42.609009 L 363.744995 131.610001 L 340.123993 131.610001 Z"/>
        </g>
        <path id="path6" fill="#ffffff" fill-rule="evenodd" stroke="none" d="M 462.447998 113.472 C 451.903015 127.391998 438.826996 133.718994 421.954987 133.718994 C 394.537994 133.718994 374.290985 113.050995 374.290985 87.320999 C 374.290985 61.591003 394.959015 40.923004 421.954987 40.923004 C 437.140015 40.923004 451.059998 48.093994 459.495972 58.639008 L 442.624023 73.401993 C 437.984009 67.074997 430.812988 62.856995 421.955994 62.856995 C 408.036011 62.856995 397.912994 73.824005 397.912994 87.322006 C 397.912994 101.242004 408.036011 111.787003 422.377991 111.787003 C 432.07901 111.787003 439.671997 105.882004 443.468018 99.975998 L 462.448975 113.473999 Z"/>
        <path id="path7" fill="#ffffff" fill-rule="evenodd" stroke="none" d="M 548.916992 117.690002 C 540.481018 127.813004 526.140015 133.718994 512.642029 133.718994 C 486.067993 133.718994 466.244019 115.160004 466.244019 87.320999 C 466.244019 62.434998 483.116028 40.923004 509.690002 40.923004 C 534.155029 40.923004 551.448975 61.591003 551.448975 86.477997 C 551.448975 89.009003 551.448975 91.117996 551.026978 93.227005 L 489.44397 93.227005 C 490.708984 105.880997 500.833008 114.317001 513.487 114.317001 C 523.609985 114.317001 531.625 108.412003 535.843018 104.194 L 548.919006 117.692001 L 548.919006 117.692001 Z M 526.984009 75.931 C 526.140015 67.917007 518.969971 60.324005 509.268005 60.324005 C 499.565979 60.324005 491.130005 67.916 490.286987 75.931 L 526.984009 75.931 Z"/>
        <path id="path8" fill="#ffffff" fill-rule="evenodd" stroke="none" d="M 560.728027 132.031006 L 560.728027 42.609009 L 583.505005 42.609009 L 583.505005 49.779999 C 590.254028 44.296997 598.690002 40.921997 608.812988 40.921997 C 621.044983 40.921997 632.434021 46.404999 639.60498 55.263 C 645.51001 62.434006 648.88501 71.292007 648.88501 86.477005 L 648.88501 132.031998 L 625.263977 132.031998 L 625.263977 84.789993 C 625.263977 75.932007 623.155029 71.292007 619.781006 67.917999 C 616.828003 64.964996 611.767029 62.856003 606.28302 62.856003 C 596.159973 62.856003 588.14502 69.182999 584.770996 73.822998 L 584.770996 131.610001 L 560.728027 131.610001 L 560.728027 132.031998 L 560.728027 132.031998 Z"/>
        <path id="path9" fill="#63df4e" fill-rule="evenodd" stroke="none" d="M 710.046997 40.92099 C 681.786011 40.92099 658.164978 64.119995 657.742981 92.802994 C 657.742981 107.988007 664.070007 121.485992 674.192993 131.186996 C 677.989014 134.561005 683.473022 134.983002 687.690979 132.031006 C 693.596008 127.391006 701.189026 124.860001 710.046997 124.860001 C 718.905029 124.860001 726.497009 127.813004 732.403015 132.031006 C 736.620972 134.983994 742.10498 134.983994 745.901001 131.186996 C 756.023987 121.485992 761.929993 108.410004 761.929993 93.225006 C 761.507996 64.121002 738.731018 40.92099 710.047974 40.92099 M 709.625 118.955002 C 694.018005 118.955002 683.473022 107.143997 683.473022 92.802994 C 683.473022 78.462006 694.018005 66.651001 709.625 66.651001 C 725.231995 66.651001 735.776978 78.462006 735.776978 92.802994 C 735.776978 107.565994 725.231995 118.955002 709.625 118.955002"/>
        <path id="path10" fill="#ffffff" fill-rule="evenodd" stroke="none" d="M 808.749023 132.031006 L 791.03302 132.031006 L 755.601013 42.609009 L 779.643982 42.609009 L 799.046997 93.647003 L 818.028992 42.609009 L 837.853027 42.609009 L 856.833984 93.647003 L 876.237 42.609009 L 899.857971 42.609009 L 864.427002 132.031006 L 846.710999 132.031006 L 827.72998 80.992996 L 808.749023 132.031006 Z"/>
    </g>
    <g id="g2">
        <path id="path11" fill="#ffffff" stroke="none" d="M 900.280029 121.908005 L 898.171021 121.908005 L 898.171021 125.703995 L 896.484009 125.703995 L 896.484009 115.158997 L 900.702026 115.158997 C 902.388977 115.158997 904.075989 116.845993 904.075989 118.533005 C 904.075989 119.798004 903.231995 121.063995 901.96698 121.485992 L 904.497986 125.703995 L 902.810974 125.703995 L 900.280029 121.908005 L 900.280029 121.908005 Z M 898.171021 120.220993 L 900.702026 120.220993 C 901.546021 120.220993 902.388977 119.376999 902.388977 118.533997 C 902.388977 117.690994 901.544983 116.847 900.702026 116.847 L 898.171021 116.847 C 898.171021 116.847 898.171021 120.220993 898.171021 120.220993 Z"/>
        <path id="path12" fill="#ffffff" stroke="none" d="M 899.857971 110.940994 C 905.341003 110.940994 909.559998 115.158997 909.559998 120.641998 C 909.559998 126.125 905.34198 130.343002 899.857971 130.343002 C 894.374023 130.343002 890.156006 126.125 890.156006 120.641998 C 890.156006 115.158997 894.796021 110.940994 899.857971 110.940994 M 899.857971 109.675003 C 893.531006 109.675003 888.890991 114.737 888.890991 120.641998 C 888.890991 126.968994 893.953003 131.608994 899.857971 131.608994 C 906.184998 131.608994 910.825012 126.546997 910.825012 120.641998 C 911.247009 114.315002 906.184998 109.675003 899.857971 109.675003 L 899.857971 109.675003 Z"/>
    </g>
</svg>
